<svg xmlns="http://www.w3.org/2000/svg" width="108" height="84" viewBox="0 0 108 84" fill="none"><path d="M0 0H66C89.196 0 108 18.804 108 42C108 65.196 89.196 84 66 84H0V0Z" fill="rgba(25, 30, 48, 1)"></path><path fill-rule="evenodd" clip-rule="evenodd" d="M83.7001 35.56C86.4478 35.56 88.6828 37.7246 88.7956 40.4349L88.8001 40.65V58.5C88.8001 61.2379 86.6355 63.4632 83.9159 63.5756L83.7001 63.58H65.1001C62.3524 63.58 60.1174 61.4249 60.0046 58.7151L60.0001 58.5V49.02H67.7501L66.6263 52.26L65.5101 55.5C65.4301 55.7133 65.4449 55.7686 65.6178 55.7783L65.6901 55.78C66.4201 55.78 67.1501 55.77 67.8801 55.78C68.0601 55.78 68.1301 55.71 68.1901 55.55C68.4701 54.64 68.7601 53.75 69.0501 52.84C69.0834 52.7317 69.1307 52.6789 69.2265 52.6643L69.2901 52.66L73.6794 52.6576C73.7473 52.661 73.766 52.6827 73.7992 52.7739L74.7501 55.57C74.8001 55.72 74.8701 55.78 75.0301 55.78L75.7471 55.7756L77.3638 55.7788L77.5501 55.77C77.6334 55.77 77.689 55.7492 77.6878 55.6786L77.6801 55.63L77.6401 55.51L76.5264 52.36L75.4201 49.21L73.6601 44.23C73.7276 43.915 73.7726 43.5944 73.7909 43.2639L73.8001 42.93V35.56H83.7001ZM81.5401 45.82H79.2701C79.0657 45.82 79.035 45.8358 79.0308 45.9938L79.0301 55.53C79.0301 55.7225 79.0607 55.7848 79.2158 55.7974L79.2901 55.8H81.5201C81.7126 55.8 81.7673 55.777 81.778 55.6239L81.7801 55.55V46.06C81.7801 45.85 81.7501 45.82 81.5401 45.82ZM72.0801 47.15L73.0101 50.14H69.8501L70.3701 48.4C71.0201 48.09 71.6001 47.67 72.0801 47.15ZM67.7 20C70.4477 20 72.6827 22.1551 72.7955 24.8649L72.8 25.08V42.93C72.8 44.09 72.41 45.17 71.74 46.03C71.47 46.38 71.15 46.7 70.8 46.97C70.04 47.55 69.11 47.93 68.1 48L67.9037 48.0138L67.7 48.02H49.1C46.3523 48.02 44.1173 45.8554 44.0045 43.1451L44 42.93V25.08C44 22.3421 46.1646 20.1168 48.8842 20.0044L49.1 20H67.7ZM80.4418 41.632L80.2701 41.64C79.4701 41.71 78.7201 42.36 78.9201 43.5C79.0801 44.46 79.8601 44.85 80.7301 44.71C81.4701 44.61 81.9901 43.92 81.9501 43.17L81.9345 42.927C81.9312 42.8856 81.9268 42.8433 81.9201 42.8C81.7701 42.1344 81.2773 41.627 80.4418 41.632ZM64.18 30.11C63.33 30.11 62.62 30.25 62.05 30.54C61.53 30.78 61.09 31.17 60.79 31.66C60.52 32.11 60.37 32.61 60.37 33.13C60.36 33.56 60.46 33.98 60.65 34.37C60.88 34.79 61.19 35.13 61.57 35.4C61.7033 35.4933 61.8367 35.5822 61.973 35.6637L62.18 35.78C62.35 35.88 62.53 35.97 62.72 36.05L62.7663 36.075L62.82 36.1H62.83C62.9233 36.1467 63.0256 36.1889 63.1278 36.2267L63.39 36.32L63.5 36.37L63.7 36.45L63.88 36.53L63.96 36.57L64.04 36.6L64.055 36.6138L64.15 36.66C64.28 36.72 64.39 36.79 64.46 36.85C64.66 37.01 64.75 37.17 64.75 37.34C64.75 37.52 64.6618 37.6927 64.5233 37.795L64.45 37.84L64.42 37.85C64.21 37.96 63.88 38.02 63.43 38.02C63.038 38.02 62.6524 37.9816 62.2783 37.8997L62 37.83C61.84 37.79 61.68 37.75 61.53 37.7C61.38 37.65 61.23 37.6 61.08 37.52C60.9533 37.4733 60.8267 37.4133 60.7 37.3459L60.51 37.24C60.47 37.22 60.43 37.2 60.4 37.23C60.38 37.2433 60.3644 37.2656 60.3563 37.2878L60.35 37.32V39.45C60.34 39.55 60.4 39.63 60.49 39.69C60.794 39.834 61.1236 39.946 61.4583 40.0209L61.71 40.07C62.26 40.19 62.8 40.23 63.35 40.23C64.085 40.23 64.7205 40.1381 65.2497 39.9544L65.47 39.87L65.53 39.84C66.08 39.62 66.55 39.25 66.88 38.76C67.19 38.28 67.37 37.71 67.36 37.14C67.37 36.71 67.27 36.28 67.07 35.89C67.01 35.78 66.94 35.67 66.86 35.56C66.8 35.48 66.73 35.4 66.66 35.33C66.64 35.3 66.62 35.28 66.59 35.26C66.57 35.23 66.56 35.22 66.54 35.21C66.41 35.08 66.28 34.97 66.13 34.88C65.54 34.52 64.92 34.21 64.27 33.99C63.98 33.87 63.69 33.74 63.41 33.59C63.26 33.51 63.11 33.4 63 33.26C62.93 33.17 62.88 33.06 62.88 32.95C62.88 32.84 62.92 32.72 62.98 32.62C63.036 32.532 63.1304 32.4568 63.2376 32.4149L63.32 32.39L63.35 32.37C63.58 32.31 63.83 32.28 64.07 32.29C64.3925 32.29 64.7038 32.3181 65.0164 32.3702L65.33 32.43L65.42 32.45C65.83 32.54 66.22 32.67 66.58 32.86L66.62 32.87L66.6413 32.8787L66.67 32.88C66.69 32.88 66.7 32.88 66.72 32.87C66.74 32.87 66.77 32.87 66.8 32.86C66.82 32.8467 66.8356 32.8244 66.8467 32.7993L66.86 32.76V30.76C66.86 30.71 66.85 30.66 66.83 30.61C66.815 30.5725 66.7831 30.535 66.747 30.5144L66.71 30.5C66.454 30.396 66.1788 30.3112 65.8946 30.261L65.68 30.23C65.18 30.15 64.68 30.11 64.18 30.11ZM54.19 27L53.72 27.0012L53.25 27.01H53.06L52.9312 27.0188L52.81 27.02L52.33 27.03H52.1L51.98 27.04L51.74 27.05L51.27 27.06H51.16L50.93 27.07H50.72L50.62 27.08H50.35C50.286 27.08 50.254 27.1056 50.2386 27.1568L50.23 27.2V40.07C50.23 40.15 50.2556 40.2044 50.3119 40.223L50.36 40.23H52.78C52.836 40.222 52.8856 40.182 52.9032 40.1202L52.91 40.07V36.05H53.31L53.3638 36.0513L53.41 36.06H53.51L53.56 36.07H54.06C55.07 36.07 56 35.96 56.84 35.65C57.64 35.35 58.34 34.82 58.83 34.12C59.32 33.42 59.57 32.54 59.57 31.46C59.57 30.9 59.47 30.36 59.29 29.84C59.09 29.3 58.78 28.81 58.39 28.41C57.91 27.95 57.35 27.6 56.73 27.39C56.03 27.12 55.19 27 54.19 27ZM53.7201 29.34C53.7601 29.34 53.8001 29.34 53.8401 29.35L53.9001 29.3413L53.9601 29.34H54.7801C55.1321 29.34 55.4713 29.3784 55.7926 29.4654L56.0301 29.54L56.1101 29.57C56.4501 29.69 56.7501 29.92 56.9501 30.22C57.0501 30.37 57.1101 30.52 57.1601 30.68C57.1801 30.7333 57.1912 30.7867 57.1994 30.843L57.2238 31.0513L57.2301 31.18V31.23C57.2301 31.74 57.1101 32.13 56.8601 32.42C56.5901 32.7 56.2501 32.92 55.8601 33.02C55.5241 33.124 55.1753 33.1896 54.8188 33.2168L54.5501 33.23H53.8201L53.6538 33.2238L53.3501 33.2V29.36H53.3901L53.4401 29.35H53.4901L53.5501 29.34H53.7201Z" fill="white"></path></svg>