<svg xmlns="http://www.w3.org/2000/svg" width="24" height="24" viewBox="0 0 24 24"><path d="M11.081 2.93a.9.9 0 0 1 .033.236.92.92 0 0 1-.699.884 8.533 8.533 0 0 0-2.04.82c-2.267 1.276-3.821 3.54-4.16 6.054a7.014 7.014 0 0 0 0 2.151c.339 2.515 1.893 4.779 4.16 6.055a8.57 8.57 0 0 0 2.04.82c.503.13.801.632.666 1.121a.945.945 0 0 1-1.152.648c-.88-.23-1.72-.567-2.497-1.005-2.77-1.558-4.67-4.325-5.082-7.402a8.68 8.68 0 0 1 0-2.625c.412-3.075 2.313-5.842 5.082-7.401a10.426 10.426 0 0 1 2.497-1.004.943.943 0 0 1 1.152.647zm2.99-.649c.88.23 1.72.568 2.498 1.005 2.77 1.558 4.671 4.326 5.084 7.402.066.491.097.908.097 1.312 0 .403-.03.82-.097 1.312-.413 3.076-2.314 5.844-5.084 7.402-.778.437-1.618.776-2.498 1.005a.945.945 0 0 1-1.152-.648.913.913 0 0 1 .666-1.122 8.573 8.573 0 0 0 2.041-.82c2.267-1.275 3.822-3.539 4.16-6.054a7.012 7.012 0 0 0 0-2.15c-.338-2.515-1.893-4.779-4.16-6.054a8.573 8.573 0 0 0-2.041-.82.913.913 0 0 1-.666-1.122.945.945 0 0 1 1.152-.648zM12 8.676c.337 0 .615.25.659.575l.006.09v1.994h1.994a.665.665 0 0 1 .09 1.324l-.09.006h-1.994v1.994a.665.665 0 0 1-1.324.09l-.006-.09v-1.994H9.341a.665.665 0 0 1-.09-1.324l.09-.006h1.994V9.341c0-.367.298-.665.665-.665z" fill="#008768" fill-rule="evenodd"></path></svg>